<svg width="16" height="16" viewBox="0 0 16 16" fill="none" xmlns="http://www.w3.org/2000/svg">
<path fill-rule="evenodd" clip-rule="evenodd" d="M8 16C12.4183 16 16 12.4183 16 8.00003C16 3.58175 12.4183 3.05176e-05 8 3.05176e-05C3.58172 3.05176e-05 0 3.58175 0 8.00003C0 12.4183 3.58172 16 8 16ZM11.7071 6.70714C12.0976 6.31661 12.0976 5.68345 11.7071 5.29292C11.3166 4.9024 10.6834 4.9024 10.2929 5.29292L7 8.58582L5.70711 7.29292C5.31658 6.9024 4.68342 6.9024 4.29289 7.29292C3.90237 7.68345 3.90237 8.31661 4.29289 8.70714L6.29289 10.7071C6.68342 11.0977 7.31658 11.0977 7.70711 10.7071L11.7071 6.70714Z" fill="#DA251C"/>
</svg>
